<svg viewBox="0 0 500 160" fill="none" xmlns="http://www.w3.org/2000/svg">
<path fill="#000" fill-rule="evenodd" clip-rule="evenodd" d="M175.815 107.149H183.412L168.75 69.3241H160.356L145.959 107.149H153.343L156.265 98.8085H172.84L175.815 107.149ZM158.443 92.6991L159.878 88.6085C161.472 84.3585 163.012 80.0377 164.5 75.646C166.377 81.1356 167.935 85.4564 169.175 88.6085L170.662 92.6991H158.443ZM252.122 107.149H245.428V69.3241H252.122V107.149ZM315.313 69.3241V83.296C313.365 80.4981 310.55 79.0991 306.867 79.0991C303.042 79.0991 300.049 80.3918 297.888 82.9772C295.657 85.5627 294.542 89.0512 294.542 93.4429C294.542 97.7637 295.657 101.235 297.888 103.855C300.084 106.476 303.077 107.787 306.867 107.787C310.621 107.787 313.507 106.299 315.526 103.324V107.149H322.007V69.3241H315.313ZM303.254 100.084C302.014 98.6314 301.395 96.4887 301.395 93.6554C301.395 90.822 302.014 88.6085 303.254 87.0147C304.529 85.421 306.247 84.6241 308.407 84.6241C310.638 84.6241 312.374 85.3856 313.613 86.9085C314.853 88.4314 315.473 90.6095 315.473 93.4429C315.473 96.2762 314.853 98.4543 313.613 99.9773C312.338 101.5 310.603 102.262 308.407 102.262C306.211 102.262 304.494 101.536 303.254 100.084ZM343.064 69.3241V100.721H361.073V107.149H335.892V69.3241H343.064ZM406.779 79.0991C410.533 79.0991 413.526 80.3918 415.757 82.9772C417.953 85.5981 419.051 89.0866 419.051 93.4429C419.051 97.7637 417.953 101.235 415.757 103.855C413.526 106.476 410.533 107.787 406.779 107.787C402.918 107.787 399.996 106.264 398.013 103.218V107.149H391.585V69.3241H398.279V83.296C400.227 80.4981 403.06 79.0991 406.779 79.0991ZM400.032 99.9773C401.236 101.5 402.954 102.262 405.185 102.262C407.381 102.262 409.116 101.465 410.391 99.871C411.631 98.3127 412.251 96.0991 412.251 93.2304C412.251 90.4325 411.631 88.3075 410.391 86.8554C409.187 85.3679 407.452 84.6241 405.185 84.6241C402.954 84.6241 401.218 85.3856 399.979 86.9085C398.739 88.4314 398.119 90.6095 398.119 93.4429C398.119 96.3116 398.757 98.4898 400.032 99.9773ZM433.025 107.893C425.021 107.893 420.841 104.741 420.487 98.4365H427.022C427.199 100.137 427.748 101.341 428.669 102.049C429.625 102.757 431.112 103.112 433.131 103.112C436.744 103.112 438.55 102.014 438.55 99.8178C438.55 98.8261 438.16 98.0646 437.381 97.5334C436.602 97.0021 435.203 96.5594 433.184 96.2053L430.05 95.674C424.064 94.6824 421.072 91.9198 421.072 87.3865C421.072 84.8011 422.063 82.7823 424.047 81.3302C426.03 79.8427 428.828 79.099 432.44 79.099C440.268 79.099 444.305 82.198 444.553 88.3959H438.231C438.16 86.7667 437.647 85.6157 436.69 84.9428C435.734 84.2344 434.318 83.8803 432.44 83.8803C429.253 83.8803 427.659 84.9428 427.659 87.0678C427.659 87.9886 428.013 88.7146 428.722 89.2459C429.43 89.7417 430.599 90.1313 432.228 90.4146L435.681 90.9459C439.01 91.548 441.419 92.5042 442.906 93.8146C444.429 95.1251 445.19 96.949 445.19 99.2865C445.19 102.049 444.128 104.174 442.003 105.662C439.878 107.149 436.885 107.893 433.025 107.893ZM382.737 107.149H389.431C388.687 106.087 388.315 104.351 388.315 101.943V87.3334C388.315 81.8438 384.508 79.099 376.893 79.099C369.066 79.099 364.958 82.2157 364.568 88.449H371.155C371.297 86.8553 371.793 85.7396 372.643 85.1021C373.493 84.4292 374.892 84.0928 376.84 84.0928C378.646 84.0928 379.921 84.3761 380.665 84.9428C381.444 85.474 381.834 86.324 381.834 87.4928C381.834 88.449 381.533 89.1751 380.93 89.6709C380.328 90.1313 379.337 90.4501 377.955 90.6271L373.812 90.999C366.799 91.7073 363.293 94.5584 363.293 99.5522C363.293 102.138 364.178 104.156 365.949 105.608C367.755 107.06 370.164 107.787 373.174 107.787C377.212 107.787 380.151 106.458 381.993 103.802C382.17 105.467 382.418 106.582 382.737 107.149ZM379.868 101.305C378.558 102.439 376.858 103.005 374.768 103.005C373.28 103.005 372.129 102.687 371.315 102.049C370.536 101.376 370.146 100.455 370.146 99.2865C370.146 98.1178 370.518 97.2324 371.262 96.6303C372.041 95.9928 373.316 95.5678 375.087 95.3553L378.699 94.9303C380.151 94.7532 381.196 94.3813 381.834 93.8146V96.3115C381.834 98.4719 381.178 100.137 379.868 101.305ZM292.121 93.9209V95.5146H271.615C271.863 97.8521 272.589 99.623 273.793 100.827C275.033 101.996 276.679 102.58 278.734 102.58C281.779 102.58 283.869 101.27 285.002 98.649H291.431C290.722 101.447 289.235 103.678 286.968 105.343C284.701 106.972 281.939 107.787 278.68 107.787C274.608 107.787 271.314 106.476 268.799 103.855C266.285 101.234 265.027 97.7636 265.027 93.4428C265.027 89.1219 266.267 85.6511 268.746 83.0303C271.261 80.4094 274.537 79.099 278.574 79.099C282.718 79.099 286.012 80.4625 288.456 83.1896C290.899 85.9167 292.121 89.4938 292.121 93.9209ZM278.521 84.3053C274.59 84.3053 272.305 86.4834 271.668 90.8396H285.427C285.144 88.8209 284.4 87.2271 283.196 86.0584C281.992 84.8896 280.434 84.3053 278.521 84.3053ZM255.892 76.1771H262.479V69.9083H255.892V76.1771ZM255.839 107.149H262.533V79.7365H255.839V107.149ZM239.631 82.9771C237.4 80.3917 234.407 79.099 230.653 79.099C226.792 79.099 223.87 80.6219 221.887 83.6678V79.7365H215.459V117.562H222.153V103.59C224.101 106.388 226.934 107.787 230.653 107.787C234.407 107.787 237.4 106.476 239.631 103.855C241.827 101.234 242.925 97.7636 242.925 93.4428C242.925 89.0865 241.827 85.598 239.631 82.9771ZM229.059 102.262C226.828 102.262 225.11 101.5 223.906 99.9772C222.631 98.4897 221.993 96.3115 221.993 93.4428C221.993 90.6094 222.613 88.4313 223.853 86.9084C225.092 85.3855 226.828 84.624 229.059 84.624C231.326 84.624 233.061 85.3678 234.265 86.8553C235.505 88.3073 236.125 90.4323 236.125 93.2303C236.125 96.099 235.505 98.3126 234.265 99.8709C232.99 101.465 231.255 102.262 229.059 102.262ZM200.684 79.099C204.438 79.099 207.431 80.3917 209.662 82.9771C211.858 85.598 212.956 89.0865 212.956 93.4428C212.956 97.7636 211.858 101.234 209.662 103.855C207.431 106.476 204.438 107.787 200.684 107.787C196.965 107.787 194.132 106.388 192.184 103.59V117.562H185.49V79.7365H191.918V83.6678C193.902 80.6219 196.824 79.099 200.684 79.099ZM193.937 99.9772C195.141 101.5 196.859 102.262 199.09 102.262C201.286 102.262 203.022 101.465 204.297 99.8709C205.536 98.3126 206.156 96.099 206.156 93.2303C206.156 90.4323 205.536 88.3073 204.297 86.8553C203.092 85.3678 201.357 84.624 199.09 84.624C196.859 84.624 195.124 85.3855 193.884 86.9084C192.644 88.4313 192.025 90.6094 192.025 93.4428C192.025 96.3115 192.662 98.4897 193.937 99.9772Z" fill="black"/>
<path fill="#000" fill-rule="evenodd" clip-rule="evenodd" d="M106.56 49.4285L92.3825 64.0319V88.0097H115.164L129.904 73.2257H106.56V49.4285ZM78.1531 126.572L92.3381 111.968V87.9905H69.5566L54.8091 102.774H78.1531L78.1531 126.572Z" fill="black"/>
</svg>
