<svg width="500" height="100" viewBox="0 0 500 100" fill="none" xmlns="http://www.w3.org/2000/svg">
<path fill-rule="evenodd" clip-rule="evenodd" d="M154.739 74.0008H164.454L145.705 25.5073H134.971L116.56 74.0008H126.003L129.739 63.3078H150.935L154.739 74.0008ZM132.524 55.4753L134.359 50.2309C136.398 44.7822 138.367 39.2427 140.27 33.6123C142.67 40.6503 144.662 46.1898 146.248 50.2309L148.15 55.4753H132.524ZM252.318 74.0008H243.758V25.5073H252.318V74.0008ZM333.125 25.5073V43.42C330.634 39.833 327.034 38.0394 322.325 38.0394C317.433 38.0394 313.606 39.6967 310.843 43.0113C307.99 46.326 306.564 50.7985 306.564 56.4289C306.564 61.9684 307.99 66.4187 310.843 69.7777C313.651 73.138 317.478 74.8187 322.325 74.8187C327.125 74.8187 330.816 72.911 333.398 69.0969V74.0008H341.685V25.5073H333.125ZM317.705 64.9431C316.119 63.0808 315.327 60.3337 315.327 56.7013C315.327 53.0687 316.119 50.2309 317.705 48.1876C319.335 46.1444 321.532 45.1227 324.294 45.1227C327.147 45.1227 329.367 46.099 330.951 48.0514C332.537 50.0039 333.33 52.7963 333.33 56.4289C333.33 60.0613 332.537 62.8537 330.951 64.8063C329.321 66.7585 327.102 67.7354 324.294 67.7354C321.486 67.7354 319.29 66.8046 317.705 64.9431ZM368.612 25.5073V65.7598H391.642V74.0008H359.441V25.5073H368.612ZM450.089 38.0394C454.89 38.0394 458.717 39.6967 461.57 43.0113C464.378 46.3714 465.783 50.8439 465.783 56.4289C465.783 61.9684 464.378 66.4187 461.57 69.7777C458.717 73.138 454.89 74.8187 450.089 74.8187C445.152 74.8187 441.416 72.8662 438.88 68.961V74.0008H430.66V25.5073H439.22V43.42C441.711 39.833 445.334 38.0394 450.089 38.0394ZM441.462 64.8063C443.001 66.7585 445.198 67.7354 448.051 67.7354C450.859 67.7354 453.078 66.7136 454.708 64.67C456.294 62.6722 457.087 59.8342 457.087 56.1564C457.087 52.5694 456.294 49.845 454.708 47.9834C453.169 46.0763 450.95 45.1227 448.051 45.1227C445.198 45.1227 442.978 46.099 441.394 48.0514C439.808 50.0039 439.015 52.7963 439.015 56.4289C439.015 60.1067 439.831 62.8993 441.462 64.8063ZM483.652 74.9546C473.417 74.9546 468.072 70.9136 467.619 62.8309H475.976C476.202 65.011 476.904 66.5546 478.082 67.4623C479.304 68.37 481.206 68.8251 483.788 68.8251C488.408 68.8251 490.717 67.4175 490.717 64.6018C490.717 63.3304 490.219 62.3541 489.222 61.6731C488.226 60.9919 486.437 60.4244 483.855 59.9704L479.848 59.2893C472.193 58.018 468.367 54.4762 468.367 48.6642C468.367 45.3496 469.634 42.7614 472.171 40.8998C474.707 38.9927 478.285 38.0392 482.904 38.0392C492.914 38.0392 498.077 42.0123 498.394 49.9583H490.309C490.219 47.8696 489.563 46.394 488.339 45.5313C487.116 44.6231 485.306 44.1691 482.904 44.1691C478.829 44.1691 476.79 45.5313 476.79 48.2557C476.79 49.4362 477.243 50.3669 478.15 51.0481C479.055 51.6837 480.55 52.1832 482.633 52.5464L487.049 53.2276C491.306 53.9995 494.386 55.2254 496.288 56.9054C498.235 58.5855 499.208 60.9239 499.208 63.9207C499.208 67.4623 497.85 70.1867 495.133 72.0944C492.416 74.0008 488.588 74.9546 483.652 74.9546ZM419.345 74.0008H427.905C426.954 72.6393 426.478 70.4136 426.478 67.3264V48.5962C426.478 41.5582 421.61 38.0392 411.872 38.0392C401.863 38.0392 396.61 42.035 396.111 50.0264H404.534C404.716 47.9832 405.35 46.5528 406.437 45.7355C407.524 44.8728 409.313 44.4416 411.804 44.4416C414.114 44.4416 415.744 44.8048 416.696 45.5313C417.692 46.2123 418.191 47.3021 418.191 48.8005C418.191 50.0264 417.806 50.9573 417.034 51.593C416.265 52.1832 414.997 52.5919 413.23 52.8189L407.932 53.2957C398.964 54.2037 394.481 57.859 394.481 64.2613C394.481 67.5764 395.612 70.1636 397.877 72.0251C400.187 73.8867 403.267 74.8187 407.116 74.8187C412.28 74.8187 416.038 73.1149 418.394 69.7098C418.62 71.8444 418.937 73.2739 419.345 74.0008ZM415.676 66.5085C414.001 67.9623 411.827 68.688 409.155 68.688C407.252 68.688 405.78 68.2803 404.739 67.4623C403.743 66.5995 403.244 65.4187 403.244 63.9207C403.244 62.4223 403.72 61.2872 404.671 60.5153C405.667 59.698 407.298 59.1531 409.563 58.8807L414.182 58.3358C416.038 58.1087 417.375 57.6319 418.191 56.9054V60.1066C418.191 62.8763 417.352 65.011 415.676 66.5085ZM303.468 57.0417V59.0849H277.245C277.563 62.0817 278.491 64.3521 280.031 65.8957C281.616 67.3944 283.721 68.1431 286.349 68.1431C290.243 68.1431 292.916 66.4636 294.364 63.1034H302.586C301.679 66.6905 299.777 69.5508 296.878 71.6854C293.979 73.7739 290.448 74.8187 286.28 74.8187C281.073 74.8187 276.861 73.138 273.644 69.7777C270.43 66.4175 268.821 61.9682 268.821 56.4287C268.821 50.8891 270.407 46.4394 273.577 43.0794C276.793 39.7192 280.982 38.0392 286.144 38.0392C291.444 38.0392 295.656 39.7873 298.781 43.2836C301.905 46.7799 303.468 51.3659 303.468 57.0417ZM286.077 44.714C281.05 44.714 278.128 47.5064 277.313 53.0913H294.908C294.546 50.5032 293.595 48.4599 292.055 46.9616C290.515 45.4631 288.523 44.714 286.077 44.714ZM257.139 34.2932H265.563V26.2563H257.139V34.2932ZM257.072 74.0008H265.632V38.8566H257.072V74.0008ZM236.345 43.0112C233.492 39.6966 229.665 38.0392 224.864 38.0392C219.927 38.0392 216.19 39.9917 213.655 43.8967V38.8566H205.435V87.3508H213.995V69.438C216.486 73.0251 220.109 74.8187 224.864 74.8187C229.665 74.8187 233.492 73.138 236.345 69.7777C239.153 66.4175 240.558 61.9682 240.558 56.4287C240.558 50.8437 239.153 46.3713 236.345 43.0112ZM222.826 67.7354C219.973 67.7354 217.776 66.7585 216.237 64.8062C214.606 62.8991 213.79 60.1066 213.79 56.4287C213.79 52.7962 214.583 50.0037 216.169 48.0513C217.753 46.0989 219.973 45.1226 222.826 45.1226C225.725 45.1226 227.944 46.0762 229.483 47.9832C231.069 49.8448 231.862 52.5691 231.862 56.1563C231.862 59.8341 231.069 62.6721 229.483 64.6699C227.853 66.7136 225.634 67.7354 222.826 67.7354ZM186.541 38.0392C191.341 38.0392 195.169 39.6966 198.022 43.0112C200.83 46.3713 202.234 50.8437 202.234 56.4287C202.234 61.9682 200.83 66.4175 198.022 69.7777C195.169 73.138 191.341 74.8187 186.541 74.8187C181.785 74.8187 178.162 73.0251 175.671 69.438V87.3508H167.111V38.8566H175.331V43.8967C177.868 39.9917 181.605 38.0392 186.541 38.0392ZM177.913 64.8062C179.453 66.7585 181.65 67.7354 184.503 67.7354C187.311 67.7354 189.531 66.7136 191.161 64.6699C192.745 62.6721 193.538 59.8341 193.538 56.1563C193.538 52.5691 192.745 49.8448 191.161 47.9832C189.62 46.0762 187.401 45.1226 184.503 45.1226C181.65 45.1226 179.431 46.0989 177.845 48.0513C176.26 50.0037 175.468 52.7962 175.468 56.4287C175.468 60.1066 176.283 62.8991 177.913 64.8062Z" fill="black"/>
<path fill-rule="evenodd" clip-rule="evenodd" d="M66.1776 0L48.0478 18.7223V49.4631H77.1802L96.0293 30.5092H66.1776V0ZM29.8517 98.9019L47.991 80.1789V49.4385H18.8587L0 68.3917H29.8517V98.9019Z" fill="black"/>
</svg>
